<?xml version="1.0" encoding="UTF-8"?>
<svg version="1.1" xmlns="http://www.w3.org/2000/svg" width="512" height="512">
<path d="M0 0 C2.41223352 1.06910752 4.80527437 2.15778143 7.1953125 3.2734375 C8.50557403 3.86572806 9.81662856 4.45626709 11.12841797 5.04516602 C14.53264795 6.58091177 17.92307995 8.14487045 21.31030273 9.7177124 C23.26447924 10.62258419 25.22215786 11.51928199 27.18164062 12.41259766 C142.09053905 64.80377732 142.09053905 64.80377732 165.3203125 99.6484375 C168.61864297 98.54899401 169.15770598 97.89189092 171.2578125 95.2734375 C203.86426582 57.1988212 257.91002583 34.21562807 302.3203125 13.6484375 C303.07745544 13.29749023 303.83459839 12.94654297 304.61468506 12.58496094 C309.53845309 10.30958044 314.47702829 8.07057159 319.43341064 5.86712646 C321.04588259 5.14713731 322.65517368 4.41997467 324.26092529 3.68511963 C343.26609169 -4.98564729 343.26609169 -4.98564729 353.45532227 -1.65332031 C357.74348134 0.47756748 360.08123873 3.51476284 362.3203125 7.6484375 C363.20900184 10.50737157 363.44262073 13.06363902 363.43383789 16.04980469 C363.43376236 16.9103949 363.43368683 17.77098511 363.43360901 18.65765381 C363.42844772 19.57758118 363.42328644 20.49750854 363.41796875 21.4453125 C363.41584633 22.86846771 363.41584633 22.86846771 363.41368103 24.32037354 C363.40808992 27.34642712 363.39553902 30.37240633 363.3828125 33.3984375 C363.37779635 35.45182185 363.37323365 37.50520736 363.36914062 39.55859375 C363.35812339 44.58857026 363.34086483 49.61849128 363.3203125 54.6484375 C364.33025269 54.12334595 364.33025269 54.12334595 365.3605957 53.58764648 C366.25093506 53.13204346 367.14127441 52.67644043 368.05859375 52.20703125 C368.93813721 51.75384521 369.81768066 51.30065918 370.72387695 50.83374023 C375.60511746 48.60539772 379.61037377 48.35362048 384.9453125 49.2734375 C390.07983661 51.36528066 393.32389237 53.795398 395.97090149 58.71803284 C397.78646526 63.22325618 397.71959704 67.54738615 397.66088867 72.34741211 C397.66132675 73.29453064 397.66176483 74.24164917 397.66221619 75.21746826 C397.66013646 78.3287868 397.63684375 81.43955756 397.61328125 84.55078125 C397.6076824 86.71553757 397.60341367 88.88029771 397.60041809 91.0450592 C397.58899213 96.72834869 397.55954415 102.41140629 397.52630615 108.09460449 C397.49555685 113.8996263 397.48190236 119.70468576 397.46679688 125.50976562 C397.43467242 136.88942451 397.38350316 148.26891168 397.3203125 159.6484375 C397.92794434 159.70249756 398.53557617 159.75655762 399.16162109 159.81225586 C399.96422363 159.89096924 400.76682617 159.96968262 401.59375 160.05078125 C402.38700684 160.12546631 403.18026367 160.20015137 403.99755859 160.27709961 C410.68240417 161.34580364 414.60242384 165.67338488 418.83984375 170.55078125 C423.03158586 176.49000423 422.68685401 182.4615405 422.6953125 189.4609375 C422.71980469 190.51603516 422.74429688 191.57113281 422.76953125 192.65820312 C422.79526551 199.54211872 421.75143887 203.70160386 418.3203125 209.6484375 C418.07350974 212.87834602 418.07350974 212.87834602 420.2890625 216.1171875 C423.00805269 221.37262084 422.91081878 226.33340871 422.8203125 232.1484375 C422.83578125 233.14230469 422.85125 234.13617188 422.8671875 235.16015625 C422.83206174 241.80770661 421.60563663 245.89422168 418.3203125 251.6484375 C418.39978053 254.90662661 419.34055212 256.68726452 420.8515625 259.5859375 C423.00440567 264.61360195 422.79593323 269.69705285 422.7578125 275.0859375 C422.77779297 276.08431641 422.79777344 277.08269531 422.81835938 278.11132812 C422.81395949 284.80355229 421.62013439 288.85251272 418.3203125 294.6484375 C418.07181837 297.87478574 418.07181837 297.87478574 420.2890625 301.0859375 C423.08039783 306.48120402 422.908887 311.68442119 422.8203125 317.6484375 C422.83578125 318.69 422.85125 319.7315625 422.8671875 320.8046875 C422.82716691 328.72876479 421.4103518 334.10893794 416.171875 340.109375 C409.87495287 345.52251859 405.72958957 347.74148621 397.3203125 347.6484375 C397.32919495 348.40741333 397.33807739 349.16638916 397.347229 349.94836426 C397.42762745 357.12731462 397.48840419 364.30604438 397.52756119 371.48532867 C397.5483696 375.17563705 397.57656169 378.86557108 397.62207031 382.55566406 C397.66577193 386.12185811 397.68950026 389.68769381 397.69982147 393.25413513 C397.71072744 395.26593862 397.74191441 397.27759946 397.77349854 399.28918457 C397.77520414 406.29332536 397.71276008 411.98276234 393.3203125 417.6484375 C386.55748185 424.10135591 377.53343987 427.81284675 369.25317383 431.91699219 C367.62431838 432.73167463 365.99581296 433.54705724 364.36763 434.36308289 C359.9665427 436.56632526 355.56057782 438.75964274 351.15358949 440.95105267 C346.53540109 443.249466 341.9216167 445.55668714 337.30729675 447.862854 C329.56370827 451.73142966 321.81719038 455.59408305 314.06860352 459.45263672 C304.12468862 464.40442149 294.18538868 469.36539494 284.24760914 474.32947922 C275.69545574 478.60140476 267.14151999 482.86975689 258.58712935 487.13720036 C256.75271138 488.05238571 254.91835478 488.9676941 253.084059 489.88312435 C247.85791241 492.49130096 242.63083311 495.09758756 237.40214348 497.70066261 C235.8187539 498.48930009 234.23569515 499.27860221 232.65299225 500.06861687 C230.4928314 501.14670166 228.33146151 502.22232282 226.16975403 503.29730225 C225.54387778 503.61033255 224.91800152 503.92336286 224.27315933 504.24587893 C218.16939957 507.27443357 214.01323195 508.89219196 207.1328125 508.7109375 C202.5623494 508.40606021 202.5623494 508.40606021 198.3203125 509.6484375 C196.31990002 509.74502947 194.3162192 509.77640225 192.31347656 509.77783203 C190.42076019 509.78256027 190.42076019 509.78256027 188.48980713 509.78738403 C187.10518357 509.78559342 185.72056032 509.78354226 184.3359375 509.78125 C182.91827376 509.78192363 181.50061013 509.78289414 180.08294678 509.78414917 C177.10704451 509.78562529 174.13117222 509.78347562 171.15527344 509.77880859 C167.35121374 509.7731321 163.54722493 509.77637759 159.74316788 509.78238106 C156.81255568 509.78600674 153.88196007 509.78483852 150.95134735 509.78225327 C149.54959861 509.78158846 148.14784833 509.78239674 146.74610138 509.78473282 C144.77897676 509.78728995 142.81184683 509.78269752 140.84472656 509.77783203 C139.72712952 509.77703644 138.60953247 509.77624084 137.45806885 509.77542114 C134.3203125 509.6484375 134.3203125 509.6484375 131.21118164 509.12779236 C128.5073726 508.67945522 126.26195352 508.67457543 123.54199219 508.84936523 C117.78380146 508.88732735 113.81205946 507.06093454 108.7734375 504.43359375 C107.81503967 503.9551149 106.85664185 503.47663605 105.86920166 502.98365784 C103.6390361 501.86807513 101.4133433 500.74352512 99.19116211 499.61212158 C94.83636049 497.39601386 90.45842122 495.22723354 86.08007812 493.05810547 C76.32054023 488.21860681 66.57748321 483.34653477 56.83642578 478.4699707 C53.14645149 476.62368083 49.45499615 474.7803628 45.76354599 472.93702602 C42.14372987 471.12894583 38.52488924 469.31891994 34.90631866 467.50834846 C33.20859142 466.65915749 31.51058081 465.81053273 29.81224823 464.96255302 C20.1607389 460.14206982 10.57139419 455.22299064 1.03637028 450.17587471 C-5.48292339 446.73249053 -12.06561275 443.44893367 -18.69921875 440.23046875 C-20.98022533 439.11085611 -23.26081317 437.99039003 -25.54101562 436.86914062 C-29.04152153 435.14989293 -32.54414118 433.43577082 -36.05395508 431.7355957 C-39.5057086 430.06123232 -42.94681871 428.36652375 -46.38671875 426.66796875 C-47.43358353 426.16675003 -48.4804483 425.66553131 -49.55903625 425.14912415 C-55.73304901 422.07419703 -61.90978871 418.69874052 -64.31988525 411.82167053 C-64.7833516 409.02229842 -64.79898186 406.34126041 -64.79321289 403.50292969 C-64.79313736 402.26194519 -64.79306183 401.02096069 -64.79298401 399.74237061 C-64.78787781 398.39335083 -64.78266182 397.04433146 -64.77734375 395.6953125 C-64.77547774 394.31097464 -64.7740547 392.92663612 -64.77305603 391.54229736 C-64.76924523 387.90582442 -64.75942725 384.26939168 -64.74835205 380.63293457 C-64.738107 376.91935774 -64.73355179 373.2057744 -64.72851562 369.4921875 C-64.71780366 362.21091921 -64.70074454 354.929684 -64.6796875 347.6484375 C-65.28731934 347.59437744 -65.89495117 347.54031738 -66.52099609 347.48461914 C-67.32359863 347.40590576 -68.12620117 347.32719238 -68.953125 347.24609375 C-69.74638184 347.17140869 -70.53963867 347.09672363 -71.35693359 347.01977539 C-78.04177917 345.95107136 -81.96179884 341.62349012 -86.19921875 336.74609375 C-90.39096086 330.80687077 -90.04622901 324.8353345 -90.0546875 317.8359375 C-90.07917969 316.78083984 -90.10367188 315.72574219 -90.12890625 314.63867188 C-90.15464051 307.75475628 -89.11081387 303.59527114 -85.6796875 297.6484375 C-85.43288474 294.41852898 -85.43288474 294.41852898 -87.6484375 291.1796875 C-90.36742769 285.92425416 -90.27019378 280.96346629 -90.1796875 275.1484375 C-90.19515625 274.15457031 -90.210625 273.16070312 -90.2265625 272.13671875 C-90.19143674 265.48916839 -88.96501163 261.40265332 -85.6796875 255.6484375 C-85.75915553 252.39024839 -86.69992712 250.60961048 -88.2109375 247.7109375 C-90.36378067 242.68327305 -90.15530823 237.59982215 -90.1171875 232.2109375 C-90.13716797 231.21255859 -90.15714844 230.21417969 -90.17773438 229.18554688 C-90.17333449 222.49332271 -88.97950939 218.44436228 -85.6796875 212.6484375 C-85.43119337 209.42208926 -85.43119337 209.42208926 -87.6484375 206.2109375 C-90.43977283 200.81567098 -90.268262 195.61245381 -90.1796875 189.6484375 C-90.19515625 188.606875 -90.210625 187.5653125 -90.2265625 186.4921875 C-90.18654191 178.56811021 -88.7697268 173.18793706 -83.53125 167.1875 C-77.23432787 161.77435641 -73.08896457 159.55538879 -64.6796875 159.6484375 C-64.68856995 158.450979 -64.69745239 157.25352051 -64.706604 156.01977539 C-64.78778363 144.72032116 -64.84769805 133.42092631 -64.88693619 122.12124634 C-64.90778728 116.31231507 -64.9360601 110.50361972 -64.98144531 104.69482422 C-65.02499077 99.08622934 -65.04884325 93.47786103 -65.05919647 87.86911011 C-65.06657217 85.7321313 -65.08097521 83.59516451 -65.10260773 81.45828247 C-65.13175686 78.4588975 -65.13563863 75.46044193 -65.13378906 72.4609375 C-65.14817017 71.58267807 -65.16255127 70.70441864 -65.17736816 69.79954529 C-65.13051226 62.75095032 -63.33723675 57.37781241 -58.3671875 52.2734375 C-53.34684384 49.23788087 -48.71981668 48.10944841 -42.86401367 49.02368164 C-40.19097855 49.78821689 -37.8881284 50.93427793 -35.41796875 52.20703125 C-34.08245972 52.89043579 -34.08245972 52.89043579 -32.7199707 53.58764648 C-31.71003052 54.11273804 -31.71003052 54.11273804 -30.6796875 54.6484375 C-30.69539795 53.38249756 -30.7111084 52.11655762 -30.72729492 50.81225586 C-30.78177914 46.09536147 -30.8161048 41.37849468 -30.84448242 36.66137695 C-30.85952697 34.62356888 -30.87996762 32.58579296 -30.90600586 30.5480957 C-30.94257997 27.61140994 -30.95945749 24.67515399 -30.97265625 21.73828125 C-30.98814011 20.83383774 -31.00362396 19.92939423 -31.01957703 18.99754333 C-31.0214162 12.014279 -29.94031878 7.25685821 -25.2421875 1.8359375 C-17.68443822 -4.61579969 -8.84345358 -3.53789306 0 0 Z M-12.6796875 15.6484375 C-12.6796875 31.8184375 -12.6796875 47.9884375 -12.6796875 64.6484375 C5.70437748 73.94204996 24.09577129 83.22064204 42.5011301 92.47200108 C51.04681063 96.76804487 59.58899926 101.07077432 68.12329102 105.3894043 C75.5617812 109.1535015 83.00651288 112.90489981 90.4590134 116.64118618 C94.40488302 118.61998755 98.34733703 120.60500244 102.28238106 122.60525703 C105.98706424 124.48816423 109.69986648 126.3539617 113.41955376 128.20704269 C114.78240755 128.8897066 116.14219264 129.57853732 117.49856567 130.27398872 C119.35367432 131.22399041 121.21863618 132.15101111 123.08766174 133.07325745 C124.12836602 133.59775765 125.1690703 134.12225786 126.24131107 134.66265202 C129.99470137 135.86435256 132.49568823 135.43395014 136.3203125 134.6484375 C138.07759529 134.51590456 139.83704609 134.40857952 141.59765625 134.33203125 C142.52255859 134.29013672 143.44746094 134.24824219 144.40039062 134.20507812 C145.34333984 134.16576172 146.28628906 134.12644531 147.2578125 134.0859375 C148.22783203 134.04275391 149.19785156 133.99957031 150.19726562 133.95507812 C152.57149851 133.84981657 154.94582171 133.74768043 157.3203125 133.6484375 C157.96830254 125.88455678 158.12356138 120.09646391 153.19921875 113.8125 C152.57917969 113.09835938 151.95914063 112.38421875 151.3203125 111.6484375 C150.68996094 110.87242188 150.05960938 110.09640625 149.41015625 109.296875 C113.47091849 66.97590343 51.7322039 42.89537599 1.91455078 21.22070312 C-1.09857917 19.90263786 -4.09612086 18.55658327 -7.08984375 17.1953125 C-10.33432039 15.51652829 -10.33432039 15.51652829 -12.6796875 15.6484375 Z M335.83203125 18.875 C335.07011475 19.21423492 334.30819824 19.55346985 333.52319336 19.90298462 C331.01591575 21.02173062 328.51161759 22.14694294 326.0078125 23.2734375 C325.15152252 23.65769897 324.29523254 24.04196045 323.41299438 24.43786621 C279.17659587 44.30591267 233.67280964 65.14455505 196.3203125 96.6484375 C194.85078125 97.87240234 194.85078125 97.87240234 193.3515625 99.12109375 C186.36979221 105.17260069 179.50155199 112.28595852 175.3203125 120.6484375 C175.24938408 122.8557298 175.23616225 125.06511202 175.2578125 127.2734375 C175.26683594 128.46195312 175.27585937 129.65046875 175.28515625 130.875 C175.29675781 131.79023438 175.30835938 132.70546875 175.3203125 133.6484375 C176.21955444 133.68602173 176.21955444 133.68602173 177.13696289 133.72436523 C179.88574574 133.84129523 182.63426625 133.96357697 185.3828125 134.0859375 C186.32576172 134.12525391 187.26871094 134.16457031 188.24023438 134.20507812 C189.16513672 134.24697266 190.09003906 134.28886719 191.04296875 134.33203125 C191.88609619 134.36868896 192.72922363 134.40534668 193.59790039 134.44311523 C196.3203125 134.6484375 196.3203125 134.6484375 199.60092258 135.32221889 C203.89810359 135.69911414 205.73562909 134.99713977 209.55296326 133.07325745 C210.13880867 132.78417965 210.72465407 132.49510186 211.32825238 132.19726413 C213.27783782 131.22984973 215.21347683 130.23737092 217.15014648 129.24438477 C218.5494022 128.54348686 219.94945368 127.84417572 221.35023499 127.14633179 C225.14305275 125.25121251 228.9243706 123.33412098 232.70400119 121.41286588 C236.65867155 119.40737466 240.62356594 117.42230719 244.5874176 115.43504333 C252.08851199 111.67051712 259.58024165 107.88773404 267.06877428 104.09829229 C275.59609816 99.78430904 284.13366965 95.49079827 292.67216003 91.19896996 C310.23305934 82.37150051 327.77950114 73.51576381 345.3203125 64.6484375 C345.3203125 48.4784375 345.3203125 32.3084375 345.3203125 15.6484375 C341.90296578 15.6484375 338.90849193 17.49299883 335.83203125 18.875 Z M-46.6796875 67.6484375 C-46.6796875 98.0084375 -46.6796875 128.3684375 -46.6796875 159.6484375 C-32.8196875 160.1434375 -32.8196875 160.1434375 -18.6796875 160.6484375 C-7.20788507 165.23715847 -3.07057658 168.00313754 2.3203125 178.6484375 C4.97356298 186.23139598 4.14732354 196.22753352 1.3203125 203.6484375 C1.98417969 204.01195312 2.64804688 204.37546875 3.33203125 204.75 C11.07941264 209.16091787 16.10899918 213.49788168 19.58984375 221.89453125 C21.72390053 229.94003942 21.63953448 239.22694575 17.64453125 246.65625 C13.13808236 253.43586338 8.85464031 257.47608895 1.3203125 260.6484375 C1.64257812 261.65132812 1.96484375 262.65421875 2.296875 263.6875 C4.67812823 272.07035428 4.73688782 281.91289546 0.6015625 289.7109375 C-4.63149473 297.62434111 -4.63149473 297.62434111 -8.6796875 299.6484375 C-8.47472656 300.24011719 -8.26976562 300.83179688 -8.05859375 301.44140625 C-4.4372712 312.06279727 -3.19603393 321.04611383 -7.6796875 331.6484375 C-12.31549184 339.69787958 -17.9734253 343.7463501 -26.6796875 346.6484375 C-33.2796875 346.9784375 -39.8796875 347.3084375 -46.6796875 347.6484375 C-46.6796875 366.7884375 -46.6796875 385.9284375 -46.6796875 405.6484375 C-34.50027374 412.05865527 -22.31818565 418.40495143 -10.0078125 424.55078125 C-8.38607097 425.36199083 -6.76438869 426.17331887 -5.14276123 426.98475647 C-1.77550748 428.66911182 1.59244692 430.35205512 4.9609375 432.03393555 C9.20560771 434.15343046 13.44846193 436.27653214 17.69083881 438.40061283 C32.82125486 445.9745097 47.94937049 453.54008496 63.2419281 460.78277588 C75.96083042 466.82225488 88.50230448 473.2262662 101.07055664 479.5715332 C104.37736082 481.23990941 107.68655686 482.90345917 110.99609375 484.56640625 C112.00730789 485.07874313 113.01852203 485.59108002 114.06037903 486.11894226 C114.98702866 486.58395645 115.91367828 487.04897064 116.8684082 487.52807617 C117.6828389 487.93902023 118.49726959 488.34996429 119.33638 488.77336121 C121.26390392 489.78296004 121.26390392 489.78296004 123.3203125 489.6484375 C123.3203125 378.4384375 123.3203125 267.2284375 123.3203125 152.6484375 C111.72155011 146.54382571 100.13266276 140.48058101 88.40966797 134.62841797 C86.9305924 133.88819959 85.45160142 133.14781216 83.97268677 132.40727234 C80.02850989 130.43294294 76.08310966 128.46107093 72.13739538 126.48981619 C67.98667247 124.41573643 63.83694006 122.3396765 59.68704224 120.26394653 C52.74373832 116.79139133 45.79960388 113.32050149 38.85498047 109.85058594 C30.82190648 105.8367886 22.79029876 101.82006884 14.75941551 97.80189025 C7.83921407 94.33952568 0.91823968 90.87871007 -6.0033921 87.41920578 C-10.12777943 85.35779192 -14.25189388 83.29583708 -18.37530899 81.2324791 C-22.23395249 79.30171982 -26.09355876 77.37289926 -29.95393753 75.44561195 C-31.37293369 74.73677782 -32.79158574 74.02725435 -34.20987701 73.31701088 C-36.13657234 72.35230853 -38.0644675 71.3900489 -39.9927063 70.42843628 C-41.07325853 69.88834867 -42.15381077 69.34826107 -43.26710701 68.79180717 C-45.38532986 67.5770608 -45.38532986 67.5770608 -46.6796875 67.6484375 Z M371.82885742 70.83067322 C370.79957894 71.34414247 370.79957894 71.34414247 369.74950695 71.86798483 C367.43230446 73.0245792 365.11655403 74.18405185 362.80078125 75.34350586 C361.14718806 76.16962551 359.49350973 76.99557475 357.8397522 77.82136536 C353.33481399 80.07154643 348.83115305 82.32427292 344.3277626 84.5775497 C339.62559943 86.92989272 334.92246467 89.28029179 330.21948242 91.6309967 C322.31975425 95.5799498 314.42087343 99.53059384 306.52246094 103.48217773 C297.37770143 108.05727845 288.23150483 112.62949608 279.08455563 117.20021719 C271.24605699 121.11720089 263.4083356 125.03573639 255.57126713 128.95558077 C250.8840566 131.29996745 246.1965739 133.64380559 241.50839233 135.98624992 C237.10154757 138.1882329 232.69567839 140.39215549 228.29056931 142.59760857 C226.66910562 143.4090042 225.04729723 144.21971137 223.42512894 145.02969742 C221.21974883 146.13103167 219.01560235 147.23479563 216.81176758 148.33921814 C216.16168323 148.66314496 215.51159887 148.98707177 214.84181499 149.32081455 C211.88396652 150.69323317 211.88396652 150.69323317 209.3203125 152.6484375 C209.22283831 154.44683799 209.19659836 156.24911659 209.19726467 158.05015659 C209.19527362 159.22953535 209.19328257 160.4089141 209.19123119 161.6240316 C209.19414403 162.93625929 209.19705687 164.24848697 209.20005798 165.60047913 C209.1996224 166.9955249 209.19874774 168.3905706 209.19746882 169.78561586 C209.19522124 173.63709881 209.19924871 177.48855422 209.20424688 181.34003365 C209.20854745 185.48661242 209.20710524 189.63318952 209.2063446 193.7797699 C209.20581912 200.9699802 209.20896848 208.16018146 209.21458244 215.35038948 C209.22269412 225.74634638 209.22531232 236.14229888 209.22657043 246.5382586 C209.22876148 263.40319377 209.23542298 280.2681241 209.24487305 297.13305664 C209.25404581 313.52010067 209.26112731 329.90714338 209.26538086 346.29418945 C209.26564358 347.30353123 209.26590631 348.31287302 209.26617699 349.35280091 C209.26748199 354.41614635 209.2687457 359.47949181 209.26998889 364.54283726 C209.28036314 406.5780407 209.29798287 448.61323882 209.3203125 490.6484375 C219.94236374 485.64645088 230.54185004 480.6129027 241.03955078 475.35351562 C242.72913406 474.51003822 242.72913406 474.51003822 244.45285034 473.64952087 C247.4741777 472.14064968 250.49462638 470.63004944 253.5145936 469.1184597 C256.71703649 467.51594689 259.92047807 465.91543243 263.12374878 464.3145752 C268.49483805 461.62993275 273.86509553 458.94363228 279.23486328 456.25634766 C285.39294049 453.1745872 291.55245546 450.09571551 297.71272099 447.018332 C303.05844407 444.34775829 308.40336737 441.67558895 313.74765575 439.00214529 C316.91486889 437.41776974 320.0823295 435.83389528 323.25052261 434.2514801 C339.4461809 426.17146311 339.4461809 426.17146311 355.49560547 417.80664062 C363.36881854 413.62266044 371.34569405 409.63574672 379.3203125 405.6484375 C379.3203125 386.5084375 379.3203125 367.3684375 379.3203125 347.6484375 C372.7203125 347.3184375 366.1203125 346.9884375 359.3203125 346.6484375 C343.95059235 339.81745077 343.95059235 339.81745077 339.8828125 331.0234375 C336.51364665 322.22204829 336.64095976 314.82058011 339.56640625 305.9453125 C340.25097573 303.85968113 340.81587613 301.78372154 341.3203125 299.6484375 C340.86140625 299.308125 340.4025 298.9678125 339.9296875 298.6171875 C334.23577275 294.11947333 331.59188522 289.46315565 329.3203125 282.6484375 C329.19845889 280.23403577 329.14485157 277.81588224 329.1328125 275.3984375 C329.11863281 274.11453125 329.10445313 272.830625 329.08984375 271.5078125 C329.3291678 267.50014874 330.07840104 264.4379855 331.3203125 260.6484375 C330.46759766 260.24625 330.46759766 260.24625 329.59765625 259.8359375 C322.42364448 256.1950367 316.84696704 251.49761699 313.3828125 244.0859375 C310.99471041 236.53356463 310.93254732 226.99756764 313.9453125 219.6484375 C318.17680298 211.80469905 323.33248697 207.50034448 331.3203125 203.6484375 C330.9903125 202.7821875 330.6603125 201.9159375 330.3203125 201.0234375 C327.63583354 191.43323369 328.44788646 181.31943253 333.3203125 172.6484375 C337.66860217 166.06388458 343.76860858 162.53636348 351.3203125 160.6484375 C360.5603125 160.3184375 369.8003125 159.9884375 379.3203125 159.6484375 C379.3203125 129.2884375 379.3203125 98.9284375 379.3203125 67.6484375 C376.84001793 67.6484375 374.05040251 69.71608913 371.82885742 70.83067322 Z M141.3203125 151.6484375 C141.3203125 263.8484375 141.3203125 376.0484375 141.3203125 491.6484375 C157.8203125 491.6484375 174.3203125 491.6484375 191.3203125 491.6484375 C191.3203125 379.4484375 191.3203125 267.2484375 191.3203125 151.6484375 C174.8203125 151.6484375 158.3203125 151.6484375 141.3203125 151.6484375 Z M-70.28881836 179.44506836 C-72.35937036 182.72516873 -72.26128161 185.89510831 -72.1796875 189.6484375 C-72.19515625 190.36 -72.210625 191.0715625 -72.2265625 191.8046875 C-72.20325531 194.92785031 -71.97009245 197.18838753 -70.28881836 199.85180664 C-66.21309413 202.65832434 -62.23840065 202.20054755 -57.40234375 202.14453125 C-56.39884384 202.14598648 -55.39534393 202.14744171 -54.36143494 202.14894104 C-52.24068294 202.1472822 -50.11991888 202.13572263 -47.99926758 202.11499023 C-44.7574532 202.08607367 -41.51727809 202.09437456 -38.27539062 202.10742188 C-36.21353373 202.10118314 -34.151682 202.09279115 -32.08984375 202.08203125 C-31.12200455 202.08496689 -30.15416534 202.08790253 -29.15699768 202.09092712 C-24.20169878 202.02167934 -20.67350658 201.92387589 -16.6796875 198.6484375 C-13.72718095 195.08506753 -13.20003328 192.06458488 -13.39453125 187.57421875 C-13.96896973 183.69479178 -15.66997941 181.47652625 -18.64233398 179.03881836 C-23.09856513 176.99893118 -27.24272846 177.20014154 -32.08984375 177.21484375 C-33.09430038 177.2096019 -34.09875702 177.20436005 -35.13365173 177.19895935 C-37.2525846 177.19254792 -39.37155311 177.19386474 -41.49047852 177.20239258 C-44.7345286 177.21091737 -47.97682623 177.18210416 -51.22070312 177.15039062 C-53.28124947 177.14877888 -55.34179894 177.14935564 -57.40234375 177.15234375 C-58.37220718 177.14110977 -59.34207062 177.12987579 -60.34132385 177.11830139 C-65.64682492 177.12682931 -65.64682492 177.12682931 -70.28881836 179.44506836 Z M347.5078125 182.8359375 C345.93383206 186.56378591 345.72954624 189.65874207 346.3203125 193.6484375 C348.11567249 197.90060589 350.15594342 199.74215329 354.3203125 201.6484375 C357.78990169 202.10159162 361.23512534 202.09263328 364.73046875 202.08203125 C366.2371537 202.08989403 366.2371537 202.08989403 367.77427673 202.09791565 C369.8932096 202.10432708 372.01217811 202.10301026 374.13110352 202.09448242 C377.3751536 202.08595763 380.61745123 202.11477084 383.86132812 202.14648438 C385.92187447 202.14809612 387.98242394 202.14751936 390.04296875 202.14453125 C391.01283218 202.15576523 391.98269562 202.16699921 392.98194885 202.17857361 C398.28744992 202.17004569 398.28744992 202.17004569 402.92944336 199.85180664 C404.99999536 196.57170627 404.90190661 193.40176669 404.8203125 189.6484375 C404.83578125 188.936875 404.85125 188.2253125 404.8671875 187.4921875 C404.84388031 184.36902469 404.61071745 182.10848747 402.92944336 179.44506836 C398.85371913 176.63855066 394.87902565 177.09632745 390.04296875 177.15234375 C389.03946884 177.15088852 388.03596893 177.14943329 387.00205994 177.14793396 C384.88130794 177.1495928 382.76054388 177.16115237 380.63989258 177.18188477 C377.3980782 177.21080133 374.15790309 177.20250044 370.91601562 177.18945312 C368.85415873 177.19569186 366.792307 177.20408385 364.73046875 177.21484375 C363.76262955 177.21190811 362.79479034 177.20897247 361.79762268 177.20594788 C355.61426249 177.29235719 351.64171378 177.8467463 347.5078125 182.8359375 Z M-70.6796875 222.6484375 C-72.1732348 225.6355321 -71.98599978 228.6857823 -72.0546875 231.9609375 C-72.10367188 233.27707031 -72.15265625 234.59320313 -72.203125 235.94921875 C-71.7010225 239.49765958 -71.23818468 241.19179104 -68.61340332 243.6231842 C-63.97475065 246.08259105 -58.16609375 245.32985037 -53.05859375 245.27734375 C-51.71247669 245.27817319 -50.36635974 245.28063543 -49.02024841 245.28465271 C-46.20321044 245.28750633 -43.38696945 245.27285652 -40.57006836 245.24536133 C-36.97080978 245.21131017 -33.37297859 245.21728887 -29.77365208 245.2360239 C-26.99476873 245.2466274 -24.21621364 245.2376256 -21.43736076 245.22263908 C-19.46879775 245.21498071 -17.50019477 245.22229098 -15.53163147 245.22987366 C-7.42697427 245.12333194 -3.7078825 244.40808616 2.1953125 238.8984375 C3.89494625 235.49917001 3.94259453 232.31848718 3.3203125 228.6484375 C1.24746219 224.25399485 -0.87626513 222.06159342 -5.39276123 220.24847412 C-10.43650011 218.92511356 -15.69594216 219.22415422 -20.875 219.25 C-22.1406076 219.24712982 -23.40621521 219.24425964 -24.71017456 219.24130249 C-27.37822636 219.23926579 -30.04544661 219.24324614 -32.71337891 219.25732422 C-36.12414098 219.27445041 -39.53419649 219.26454142 -42.94493294 219.24660683 C-46.21331369 219.23313536 -49.48161003 219.24257664 -52.75 219.25 C-53.97091339 219.24392731 -55.19182678 219.23785461 -56.44973755 219.2315979 C-57.58796967 219.24105438 -58.72620178 219.25051086 -59.89892578 219.26025391 C-61.3961467 219.26383408 -61.3961467 219.26383408 -62.9236145 219.26748657 C-66.15891718 219.71467776 -68.05229657 220.73777 -70.6796875 222.6484375 Z M330.8828125 224.7734375 C328.69572789 228.79767318 328.39721992 232.16709917 329.3203125 236.6484375 C331.37857339 240.48835504 334.26811156 243.06734357 338.3203125 244.6484375 C341.15332625 244.97079016 341.15332625 244.97079016 344.29467773 244.95483398 C346.10191566 244.97881508 346.10191566 244.97881508 347.94566345 245.00328064 C349.89261864 245.01132469 349.89261864 245.01132469 351.87890625 245.01953125 C353.22884723 245.02850254 354.57878721 245.03762447 355.9287262 245.04689026 C358.75564995 245.06335995 361.58245554 245.07107686 364.40942383 245.07397461 C368.02564836 245.07936195 371.64075768 245.11706241 375.25666714 245.16271877 C378.0440117 245.19250924 380.83108805 245.19969853 383.61857796 245.20070076 C385.59783433 245.20693341 387.5769736 245.23639225 389.55601501 245.26622009 C396.64172611 245.51070122 396.64172611 245.51070122 402.63671875 242.34033203 C404.87355824 238.76385405 404.95366973 236.28318635 404.8828125 232.0859375 C404.88410156 230.78527344 404.88539063 229.48460937 404.88671875 228.14453125 C404.24758495 224.19953295 403.44394252 223.03640886 400.3203125 220.6484375 C397.71763162 219.34709706 395.79480889 219.50711089 392.88012695 219.48730469 C391.74166824 219.47769714 390.60320953 219.4680896 389.43025208 219.45819092 C388.19385483 219.45394104 386.95745758 219.44969116 385.68359375 219.4453125 C384.41565475 219.43961243 383.14771576 219.43391235 381.84135437 219.42803955 C379.15209361 219.41857683 376.46294478 219.41168704 373.77368164 219.40820312 C370.34174282 219.4027368 366.91020445 219.37875045 363.47839069 219.35023117 C360.19265569 219.32701913 356.90689924 219.32514849 353.62109375 219.3203125 C352.39481766 219.3079657 351.16854156 219.2956189 349.90510559 219.28289795 C342.29458197 219.30268615 336.80647822 219.6092161 330.8828125 224.7734375 Z M-71.6796875 267.6484375 C-72.43092045 271.30966006 -72.43092045 271.30966006 -72.2421875 275.2109375 C-72.24347656 276.51160156 -72.24476562 277.81226563 -72.24609375 279.15234375 C-71.60695995 283.09734205 -70.80331752 284.26046614 -67.6796875 286.6484375 C-64.30326655 288.33664798 -60.47655808 287.83330128 -56.76171875 287.8515625 C-55.87111252 287.85726257 -54.98050629 287.86296265 -54.06291199 287.86883545 C-52.17403351 287.87829332 -50.28513847 287.88482255 -48.39624023 287.88867188 C-45.52102326 287.89834053 -42.64653237 287.92934085 -39.77148438 287.9609375 C-37.93490007 287.96747135 -36.09831066 287.97272032 -34.26171875 287.9765625 C-32.98008598 287.9950827 -32.98008598 287.9950827 -31.67256165 288.01397705 C-26.24717749 287.99397118 -22.47823593 287.23743605 -17.6796875 284.6484375 C-14.80226172 281.47589112 -13.42473584 278.88127387 -13.1171875 274.6484375 C-13.36029286 269.94840053 -15.33409925 267.84195355 -18.6796875 264.6484375 C-21.57088148 262.90258047 -23.73311708 262.38922889 -27.09350586 262.34204102 C-27.95797836 262.32605362 -28.82245087 262.31006622 -29.71311951 262.29359436 C-31.10229332 262.28555031 -31.10229332 262.28555031 -32.51953125 262.27734375 C-33.47863907 262.26831528 -34.43774689 262.2592868 -35.42591858 262.24998474 C-37.45245241 262.23549088 -39.47903295 262.22659765 -41.50561523 262.22290039 C-44.60285244 262.21099261 -47.69810433 262.16178895 -50.79492188 262.11132812 C-52.76561529 262.10186486 -54.73632092 262.09462936 -56.70703125 262.08984375 C-57.63112289 262.07031143 -58.55521454 262.05077911 -59.50730896 262.03065491 C-65.25428319 262.07091258 -68.14363359 262.68048 -71.6796875 267.6484375 Z M347.4453125 268.3984375 C345.74567875 271.79770499 345.69803047 274.97838782 346.3203125 278.6484375 C348.46675123 283.19888761 350.61182528 285.17763645 355.26165771 287.04840088 C359.06692834 288.15752405 362.85972695 288.07516942 366.796875 288.046875 C367.68514984 288.04974518 368.57342468 288.05261536 369.48861694 288.05557251 C371.3560246 288.05760415 373.22345397 288.05213759 375.09082031 288.03955078 C377.94384309 288.02344579 380.79545759 288.03944953 383.6484375 288.05859375 C385.46875311 288.0566119 387.28906785 288.05276944 389.109375 288.046875 C390.38296371 288.05598404 390.38296371 288.05598404 391.68228149 288.0652771 C396.37029502 288.00971467 399.52113039 287.70813762 403.3203125 284.6484375 C404.8138598 281.6613429 404.62662478 278.6110927 404.6953125 275.3359375 C404.74429688 274.01980469 404.79328125 272.70367187 404.84375 271.34765625 C404.60399264 267.61087945 404.60399264 267.61087945 402.40649414 264.95654297 C398.07691763 261.71852253 394.69226476 261.94334212 389.41796875 262.01953125 C388.46264755 262.01711929 387.50732635 262.01470734 386.52305603 262.01222229 C384.50662071 262.01319993 382.49015827 262.02657363 380.47387695 262.05151367 C377.39636465 262.08578658 374.32173084 262.07217697 371.24414062 262.05273438 C369.28123783 262.05963426 367.31834243 262.06930793 365.35546875 262.08203125 C364.43967545 262.07707138 363.52388214 262.07211151 362.58033752 262.06700134 C355.74157645 262.192303 352.46723281 263.71131187 347.4453125 268.3984375 Z M-70.17016602 307.44067383 C-72.39681658 310.69728083 -72.2623675 313.84515761 -72.1796875 317.6484375 C-72.19515625 318.36 -72.210625 319.0715625 -72.2265625 319.8046875 C-72.20269394 323.00307476 -71.99656417 325.18837952 -70.16357422 327.84960938 C-66.69871042 330.35886006 -63.5268114 330.22302495 -59.40625 330.1796875 C-58.60488617 330.1835144 -57.80352234 330.18734131 -56.97787476 330.19128418 C-55.28504173 330.19400197 -53.59216662 330.18664995 -51.89941406 330.16992188 C-49.31999993 330.14856429 -46.7433886 330.16969658 -44.1640625 330.1953125 C-42.51561889 330.1926681 -40.86717702 330.18754079 -39.21875 330.1796875 C-38.4529361 330.18778442 -37.68712219 330.19588135 -36.89810181 330.20422363 C-31.73224121 330.11467986 -28.78161981 329.04516876 -24.6796875 325.6484375 C-22.32657818 322.23263365 -21.6796875 320.30386411 -21.6796875 316.1484375 C-22.93814031 311.74385265 -24.45416852 309.87395648 -27.6796875 306.6484375 C-31.44569701 305.393101 -34.99960195 305.44727708 -38.92578125 305.41015625 C-39.73330338 305.4020845 -40.5408255 305.39401276 -41.37281799 305.38569641 C-43.07998519 305.37187599 -44.78717978 305.36114471 -46.49438477 305.35327148 C-49.10420839 305.33602328 -51.71277625 305.29211694 -54.32226562 305.24804688 C-55.98176153 305.23792244 -57.64126818 305.22940556 -59.30078125 305.22265625 C-60.08005478 305.20514816 -60.85932831 305.18764008 -61.66221619 305.16960144 C-65.18669005 305.18371109 -67.27231989 305.35528137 -70.17016602 307.44067383 Z M356.5703125 310.3984375 C354.81557671 313.55696192 354.4446723 316.04200331 354.3203125 319.6484375 C355.71464317 323.27369725 357.24800378 326.2161931 360.3203125 328.6484375 C364.08632201 329.903774 367.64022695 329.84959792 371.56640625 329.88671875 C372.37392838 329.8947905 373.1814505 329.90286224 374.01344299 329.91117859 C375.72061019 329.92499901 377.42780478 329.93573029 379.13500977 329.94360352 C381.74483339 329.96085172 384.35340125 330.00475806 386.96289062 330.04882812 C388.62238653 330.05895256 390.28189318 330.06746944 391.94140625 330.07421875 C392.72067978 330.09172684 393.49995331 330.10923492 394.30284119 330.12727356 C397.82731505 330.11316391 399.91294489 329.94159363 402.81079102 327.85620117 C405.03744158 324.59959417 404.9029925 321.45171739 404.8203125 317.6484375 C404.83578125 316.936875 404.85125 316.2253125 404.8671875 315.4921875 C404.8433243 312.29451859 404.63578827 310.10758423 402.80639648 307.44506836 C399.32824266 304.93149338 396.14316215 305.0923016 392.01171875 305.15234375 C391.20798325 305.15088852 390.40424774 305.14943329 389.57615662 305.14793396 C387.87910329 305.14959125 386.18203468 305.16113364 384.48510742 305.18188477 C381.89501679 305.21080125 379.30697902 305.2024988 376.71679688 305.18945312 C375.06509427 305.19569224 373.4133981 305.20408453 371.76171875 305.21484375 C370.99074356 305.21190811 370.21976837 305.20897247 369.4254303 305.20594788 C363.83491523 305.30342289 360.50873677 306.46001323 356.5703125 310.3984375 Z " fill="#000000" transform="translate(89.6796875,2.3515625)"/>
</svg>
