<?xml version="1.0" encoding="UTF-8"?>
<svg version="1.1" xmlns="http://www.w3.org/2000/svg" width="512" height="512">
<path d="M0 0 C1.5363898 -0.00577357 3.07277268 -0.01372292 4.60914135 -0.02363622 C8.79624862 -0.0443636 12.98278059 -0.03425939 17.16988897 -0.01870513 C21.69896029 -0.00733723 26.22793645 -0.02488116 30.75698853 -0.03860474 C39.61566174 -0.06078389 48.47412259 -0.05605974 57.33280396 -0.04154153 C64.53539405 -0.03022829 71.73792481 -0.0287274 78.94052124 -0.03416061 C79.96744085 -0.03492678 80.99436047 -0.03569294 82.05239886 -0.03648233 C84.13886843 -0.03808103 86.22533798 -0.0397021 88.31180751 -0.04134528 C107.85537974 -0.0555872 127.3988345 -0.03923452 146.94238746 -0.01234345 C163.69480473 0.00999389 180.44704874 0.00611333 197.19946289 -0.01693726 C216.67530956 -0.04372279 236.15105341 -0.05421404 255.62691593 -0.03887594 C257.70551108 -0.03728327 259.78410624 -0.03571141 261.86270142 -0.03416061 C262.88528634 -0.03338924 263.90787126 -0.03261786 264.9614436 -0.03182311 C272.15151617 -0.02751437 279.34152327 -0.03477482 286.53158569 -0.04655838 C295.29944929 -0.06061252 304.0670892 -0.05672227 312.83492732 -0.03015466 C317.30449143 -0.01705563 321.77368321 -0.0117969 326.24324417 -0.02840042 C330.34173515 -0.04339471 334.43951176 -0.03495745 338.53793871 -0.00851266 C340.01353845 -0.00296754 341.48919963 -0.00567801 342.96475923 -0.0178916 C356.42097483 -0.12065229 367.42165774 2.57381723 377.24145508 12.17007446 C384.35105459 20.28247463 387.72243792 28.66358701 387.65888023 39.49334335 C387.66238631 40.25789286 387.66589238 41.02244237 387.6695047 41.81016004 C387.67879968 44.36898632 387.67390032 46.92758405 387.66903687 49.48641968 C387.67277408 51.34078349 387.67737589 53.19514573 387.68276751 55.04950547 C387.69500407 60.14317956 387.69473626 65.23678799 387.69237876 70.33047342 C387.69197076 75.82482828 387.70300813 81.31916204 387.7124939 86.81350708 C387.72910847 97.57729145 387.73460365 108.34105391 387.73571865 119.10485002 C387.73666891 127.85411594 387.74077808 136.60337462 387.7471199 145.35263824 C387.76186739 166.1211072 387.7741695 186.88957181 387.77312279 207.65804672 C387.77307605 208.65411813 387.77307605 208.65411813 387.77302837 209.67031218 C387.77286216 213.03589599 387.77266408 216.40147979 387.77245896 219.76706359 C387.77241907 220.43546689 387.77237917 221.10387019 387.77233808 221.79252813 C387.7722572 223.14420246 387.77217361 224.4958768 387.77208729 225.84755113 C387.77086194 246.87468292 387.78587267 267.90175019 387.81323242 288.92886353 C387.84396679 312.5591808 387.86113876 336.18946584 387.85930598 359.81980729 C387.85864191 372.32912772 387.86414157 384.83837538 387.88566208 397.34767914 C387.9038675 407.99828556 387.90822641 418.64878625 387.89464323 429.29940149 C387.88811042 434.73265184 387.8880079 440.16569928 387.90534973 445.59893036 C387.92107132 450.57575496 387.91822594 455.55221563 387.90078147 460.52903131 C387.89770959 462.32645031 387.90135102 464.12389641 387.91250162 465.92128345 C387.99747998 480.59457174 385.96128504 491.63250276 375.58911133 502.54116821 C370.75633082 507.1401045 365.73341242 509.63200154 359.40161133 511.63491821 C358.7905957 511.82827759 358.17958008 512.02163696 357.55004883 512.22085571 C345.37391071 514.5675296 333.52048346 512.24356779 323.10864258 505.70132446 C318.54081985 502.2144872 314.63501519 498.10105356 310.67504883 493.95132446 C308.40488918 491.59406538 306.04835672 489.41922443 303.56567383 487.28726196 C298.11778968 482.59208882 293.15147671 477.43170962 288.11254883 472.30679321 C284.63520869 468.79360421 281.15158233 465.35766557 277.40161133 462.13491821 C272.00483676 457.49689809 267.09806769 452.37738919 262.11254883 447.30679321 C258.63520869 443.79360421 255.15158233 440.35766557 251.40161133 437.13491821 C246.00483676 432.49689809 241.09806769 427.37738919 236.11254883 422.30679321 C232.63520869 418.79360421 229.15158233 415.35766557 225.40161133 412.13491821 C220.00483676 407.49689809 215.09806769 402.37738919 210.11254883 397.30679321 C206.63777831 393.79620032 203.15707671 390.36257134 199.40942383 387.14273071 C194.78804918 383.1714157 190.54681775 378.85213486 186.27661133 374.50991821 C181.48722527 369.64057579 176.75076289 364.89031355 171.40161133 360.63491821 C167.67987407 362.21752611 165.10870014 364.52585006 162.15161133 367.25991821 C161.64146484 367.73139282 161.13131836 368.20286743 160.60571289 368.68862915 C155.32799426 373.61470918 150.24283414 378.73610929 145.18579102 383.88735962 C142.04493467 387.07044462 138.87173773 390.14121535 135.47973633 393.05679321 C130.88319535 397.01809446 126.65373559 401.3102321 122.40161133 405.63491821 C117.55520729 410.56402539 112.67163514 415.32464032 107.42895508 419.83023071 C103.58163076 423.25501652 100.01146447 426.96346348 96.40161133 430.63491821 C91.55520729 435.56402539 86.67163514 440.32464032 81.42895508 444.83023071 C77.58163076 448.25501652 74.01146447 451.96346348 70.40161133 455.63491821 C65.55520729 460.56402539 60.67163514 465.32464032 55.42895508 469.83023071 C51.58163076 473.25501652 48.01146447 476.96346348 44.40161133 480.63491821 C39.47464768 485.64595974 34.52897533 490.52700023 29.16479492 495.07217407 C27.33793577 496.6913551 25.68425116 498.40674355 24.02661133 500.19741821 C16.67154122 507.6530132 6.50352861 512.90805497 -4.04174805 513.1546936 C-16.9774662 513.04070392 -26.9121456 510.40899477 -36.43823242 501.09976196 C-43.54783194 492.98736179 -46.91921526 484.60624942 -46.85565758 473.77649307 C-46.85916365 473.01194357 -46.86266973 472.24739406 -46.86628205 471.45967638 C-46.87557702 468.90085011 -46.87067766 466.34225237 -46.86581421 463.78341675 C-46.86955143 461.92905293 -46.87415323 460.0746907 -46.87954485 458.22033095 C-46.89178141 453.12665687 -46.89151361 448.03304843 -46.8891561 442.939363 C-46.8887481 437.44500815 -46.89978548 431.95067438 -46.90927124 426.45632935 C-46.92588582 415.69254498 -46.93138099 404.92878252 -46.932496 394.1649864 C-46.93344625 385.41572049 -46.93755543 376.66646181 -46.94389725 367.91719818 C-46.95864473 347.14872923 -46.97094684 326.38026462 -46.96990013 305.6117897 C-46.96986897 304.9477421 -46.96983782 304.2836945 -46.96980571 303.59952424 C-46.9696395 300.23394044 -46.96944142 296.86835664 -46.9692363 293.50277284 C-46.96919641 292.83436954 -46.96915652 292.16596624 -46.96911542 291.47730829 C-46.96903454 290.12563396 -46.96895095 288.77395963 -46.96886464 287.4222853 C-46.96763929 266.39515351 -46.98265001 245.36808623 -47.01000977 224.3409729 C-47.04074413 200.71065563 -47.05791611 177.08037059 -47.05608332 153.45002913 C-47.05541925 140.94070871 -47.06091891 128.43146104 -47.08243942 115.92215729 C-47.10064484 105.27155086 -47.10500375 94.62105018 -47.09142058 83.97043493 C-47.08488776 78.53718459 -47.08478524 73.10413715 -47.10212708 67.67090607 C-47.11784867 62.69408146 -47.11500329 57.7176208 -47.09755881 52.74080512 C-47.09448693 50.94338612 -47.09812837 49.14594001 -47.10927896 47.34855297 C-47.19475783 32.588841 -45.03583681 21.88328814 -34.89135742 10.76382446 C-25.17781912 1.2547817 -13.0039892 -0.1076374 0 0 Z M-2.59838867 44.63491821 C-2.59838867 182.57491821 -2.59838867 320.51491821 -2.59838867 462.63491821 C2.36900376 458.37715328 7.20417787 454.10680014 11.96411133 449.63491821 C12.65375977 448.98845337 13.3434082 448.34198853 14.05395508 447.67593384 C19.32171745 442.71208083 24.47219584 437.64184332 29.53271484 432.46694946 C32.35147276 429.60267877 35.23000443 426.88197342 38.27661133 424.25991821 C42.7071998 420.43138099 46.80052838 416.31070213 50.90161133 412.13491821 C55.58488357 407.36634047 60.32127484 402.78515855 65.38793945 398.42593384 C69.05650687 395.16300821 72.46273732 391.63643109 75.90161133 388.13491821 C80.58488357 383.36634047 85.32127484 378.78515855 90.38793945 374.42593384 C94.05650687 371.16300821 97.46273732 367.63643109 100.90161133 364.13491821 C105.58488357 359.36634047 110.32127484 354.78515855 115.38793945 350.42593384 C119.05650687 347.16300821 122.46273732 343.63643109 125.90161133 340.13491821 C130.61502899 335.33564595 135.38204714 330.7197817 140.48168945 326.33218384 C143.59957979 323.57587997 146.49173171 320.60742018 149.40161133 317.63491821 C153.72699101 313.25880771 158.08277355 309.01380979 162.78051758 305.03335571 C165.11613438 303.01853447 167.25510039 300.84850762 169.40161133 298.63491821 C172.88815609 300.11905551 175.04352205 302.09705873 177.65161133 304.82241821 C180.37969816 307.61682806 183.10359236 310.30559362 186.08911133 312.82241821 C190.68816923 316.75788459 194.89553079 321.07493584 199.12695312 325.39736938 C202.0918839 328.40626891 205.10496421 331.28547993 208.30786133 334.04116821 C213.49990539 338.52293265 218.24329457 343.42818038 223.04614258 348.31851196 C226.40489257 351.71410382 229.78013557 355.0190959 233.40161133 358.13491821 C238.56721877 362.57927073 243.27453425 367.4599891 248.04614258 372.31851196 C251.40489257 375.71410382 254.78013557 379.0190959 258.40161133 382.13491821 C263.56721877 386.57927073 268.27453425 391.4599891 273.04614258 396.31851196 C276.40489257 399.71410382 279.78013557 403.0190959 283.40161133 406.13491821 C288.56721877 410.57927073 293.27453425 415.4599891 298.04614258 420.31851196 C301.40489257 423.71410382 304.78013557 427.0190959 308.40161133 430.13491821 C313.56721877 434.57927073 318.27453425 439.4599891 323.04614258 444.31851196 C329.51172253 450.85501235 336.33891796 456.7493404 343.40161133 462.63491821 C343.40161133 324.69491821 343.40161133 186.75491821 343.40161133 44.63491821 C229.22161133 44.63491821 115.04161133 44.63491821 -2.59838867 44.63491821 Z " fill="#000000" transform="translate(85.598388671875,-0.634918212890625)"/>
</svg>
